<svg width="175" height="46" viewBox="0 0 175 46" fill="none" xmlns="http://www.w3.org/2000/svg">
<g clip-path="url(#clip0_34_252)">
<path d="M57.1064 8.44072C60.6154 5.45644 64.6404 1.55011 69.1225 0.256842C69.6389 0.107857 70.9607 -0.260833 71.4223 0.0382812L71.4563 0.218164C69.5266 2.59872 68.5777 4.11695 66.8036 6.52039C63.2836 11.2238 59.8234 15.9724 56.4236 20.7646L48.1786 32.1566C47.0536 33.6956 39.5023 43.5518 39.7054 44.7041C41.7645 46.0593 47.7173 40.5499 49.3327 39.3909L50.5354 38.3474L58.4852 31.3538C59.6566 30.3102 61.2377 28.7048 62.417 27.8278C64.0004 27.8459 65.5839 27.8232 67.1661 27.7598C65.5091 30.117 62.7782 32.8663 60.9216 35.1301C62.0541 35.0637 64.9091 34.9592 65.9618 35.0983C68.6334 31.2554 74.2509 27.1261 79.2148 27.8797C80.9727 28.1466 81.2973 29.9477 80.8636 31.4208L80.6379 31.8648C80.4598 32.3735 80.3091 32.6154 80.0493 33.0796C78.8227 35.3468 77.5052 36.5529 76.2834 38.4675C77.0266 39.0358 77.2239 39.1298 78.1366 39.3204L78.2264 39.2941C78.6386 39.4312 78.8154 39.3729 78.9159 39.8292C78.0664 40.029 77.6734 39.9631 76.8498 39.7148C76.3304 39.5056 76.3657 39.212 75.8414 38.9332L75.5902 39.0852C75.0573 39.5855 73.7393 40.954 73.2688 41.3303C71.162 43.1181 68.8657 45.0359 66.1448 45.7273C64.7268 46.0875 62.7152 45.4197 62.5195 43.7431C62.1864 40.8895 63.5791 38.3389 65.1116 36.0684C63.4582 36.0558 61.8282 36.029 60.1754 36.1178C57.7191 38.8527 54.8566 43.1835 52.5029 45.6003C51.1909 45.7113 49.1313 45.6389 47.7582 45.6236C48.7034 44.1656 50.51 42.121 51.6436 40.7856C53.267 38.8641 54.88 36.9337 56.4825 34.9946C57.0991 34.2607 58.0148 33.3265 58.5438 32.5932C57.5536 33.0871 52.405 37.8846 51.0584 39.0742L49.4279 40.51C47.2232 42.3059 43.7607 45.2927 40.9936 45.7845C37.1041 46.3916 36.9902 40.5725 38.2102 38.1927C40.1093 34.4886 43.2093 31.0485 45.7543 27.7566C50.5257 21.5853 55.7566 15.7675 60.8709 9.88434C63.5159 6.84194 66.9477 4.1348 69.4404 0.967211C65.0957 2.19891 61.1695 6.03293 57.7257 9.04444C56.555 10.0173 55.4598 11.2048 54.3418 12.2471C52.1884 14.255 50.1461 16.3317 48.1064 18.4564C47.97 17.9408 47.9704 17.7751 47.9532 17.2363C50.4259 14.4521 54.3291 10.9586 57.1064 8.44072ZM75.1823 38.1469C75.1573 37.0392 74.9393 36.5767 75.2995 35.4031C75.8277 33.6817 77.0175 32.1053 78.9964 32.8214C79.5709 32.2575 80.0695 31.0446 80.1477 30.2108C79.9438 29.6325 79.8059 29.054 79.2204 28.7537C78.7845 28.5301 78.3136 28.6251 77.8723 28.7784C74.5475 29.933 69.0407 37.5763 66.775 40.6792C66.0348 41.6932 65.0282 42.8208 64.5195 43.9708C64.4004 44.2402 64.4018 44.3246 64.4486 44.605C66.0877 46.3637 71.8868 41.4829 73.1368 40.3084C73.2688 40.1308 74.9077 38.4455 75.1823 38.1469Z" fill="#D9B46C"/>
<path d="M80.1477 30.2107L80.2061 30.2629C80.2111 31.0565 80.1055 31.3122 80.638 31.8646C80.4598 32.3734 80.3091 32.6153 80.0493 33.0794C79.5005 32.8888 79.2721 33.108 78.9964 32.8213C79.5709 32.2574 80.0695 31.0444 80.1477 30.2107Z" fill="#C6B77D"/>
<path d="M78.1366 39.3205L78.2264 39.2942C78.6387 39.4313 78.8155 39.3729 78.9159 39.8293C78.0664 40.029 77.6734 39.9631 76.8498 39.7148C77.2437 39.3049 77.3239 39.4766 77.9389 39.3594L78.1366 39.3205Z" fill="#E0AF5D"/>
<path d="M80.2061 30.263L80.4104 29.9429L80.5304 29.9653C80.6568 30.5416 80.6016 30.989 80.8636 31.4208L80.6379 31.8648C80.1054 31.3123 80.2111 31.0567 80.2061 30.263Z" fill="#E0AF5D"/>
<path d="M136.588 34.1668C136.608 34.1348 136.623 34.0995 136.647 34.0709C136.938 33.7228 137.482 33.4002 137.851 33.1223C139.866 31.6048 142.232 30.4028 144.049 28.6537C146.229 26.5549 148.028 24.0603 149.975 21.7503C152.954 18.2151 163.433 5.75782 167.433 5.09391C167.906 5.01541 168.419 5.02822 168.81 5.34221C169.357 5.78047 169.612 6.61626 169.682 7.28726C169.812 8.5343 169.487 10.0138 168.841 11.0876C168.014 12.4628 166.776 13.5295 165.622 14.6177C162.552 17.5134 159.23 20.1393 155.912 22.7394C154.396 23.9278 152.782 25.0584 151.34 26.334C148.688 28.6786 146.379 31.5087 144.139 34.2449C145.25 34.2616 145.614 34.3474 146.679 34.5948C147.439 33.7597 148.527 32.7976 149.369 32.0126L149.647 32.0913C149.702 32.2785 149.76 32.5177 149.841 32.6884C149.165 33.5562 148.222 34.465 147.302 35.0621C148.233 36.5071 148.767 37.1332 148.377 38.9396C148.202 39.7141 147.923 40.4606 147.548 41.1588C147.088 42.0292 145.754 43.6447 145.862 44.4324C146.988 45.0196 150.109 42.8144 151.112 42.1543C151.712 41.6653 152.177 41.3101 152.812 40.8689C153.821 39.9299 155.192 38.8806 156.28 37.9052C160.16 34.43 163.956 30.8548 168.695 28.5832C170.647 27.6476 172.227 27.1888 174.296 27.9401C177.128 31.1331 171.652 36.4346 170.425 31.7739C170.068 30.4177 173.068 29.4247 173.732 28.7802L173.62 28.5319C173.5 28.4956 173.384 28.4608 173.261 28.4377C172.499 28.2942 171.885 28.5535 171.262 28.9878C169.345 30.3241 159.35 42.3699 159.32 44.106C159.317 44.3246 159.333 44.4031 159.473 44.5647C159.718 44.8487 160.07 44.9526 160.435 44.9498C163.697 44.9258 169.54 40.015 171.832 37.6587C172.166 38.0835 172.142 38.0789 172.206 38.6037C168.853 41.4248 164.062 46.214 159.514 45.8185C154.435 45.3769 158.737 37.6354 159.947 35.7416C158.226 37.3756 155.538 39.7964 153.716 41.2906C153.321 41.6152 152.664 42.1859 152.268 42.4628C150.116 44.2028 143.86 47.9918 141.983 43.8108C140.605 40.743 146.544 37.5862 146.039 36.2483C145.894 36.2293 144.344 36.7014 143.998 36.7856C143.358 36.5744 143.105 36.4769 142.565 36.0789C139.801 39.1655 137.03 42.4919 134.263 45.6073C133.365 45.6558 129.611 45.6934 128.835 45.5412L128.817 45.4121C129.161 44.7823 131.368 42.491 132.035 41.7776C133.804 39.8871 135.521 37.9814 137.26 36.0551C138.608 34.5609 140.091 33.1972 141.377 31.5959C140.279 32.301 138.633 33.6647 137.54 34.5076C136.916 34.5071 136.852 34.9028 136.269 34.9834L136.224 34.7742C136.389 34.5373 136.453 34.4167 136.588 34.1668ZM153.457 22.9126L152.141 24.6631C152.647 24.2652 153.435 23.6106 153.948 23.2767C157.568 20.517 161.066 17.4084 164.111 14.0133C165.112 12.8967 169.716 7.13896 168.141 5.76995C168.013 5.75622 167.989 5.74523 167.845 5.77727C164.661 6.48489 155.62 19.7702 153.457 22.9126Z" fill="#D9B46C"/>
<path d="M152.141 24.6631L153.457 22.9126L153.948 23.2767C153.435 23.6106 152.648 24.2651 152.141 24.6631Z" fill="#0B525A" fill-opacity="0.0156863"/>
<path d="M115.802 38.8689C116.672 37.9315 117.994 36.9161 119.06 36.0196C120.805 34.5527 134.208 22.2846 134.354 29.4858C134.469 35.2065 125.342 38.7403 121.252 41.022C120.643 41.3794 119.313 43.6904 119.271 44.4585C119.539 45.0089 120.003 45.0954 120.571 45.3128L120.598 45.6378C120.953 45.9012 120.987 45.8227 121.499 45.8847C117.551 46.6523 116.794 43.2547 117.935 40.2237C118.542 38.6121 119.312 37.4793 120.287 36.0911C119.261 37.082 117.587 38.4293 116.471 39.3943C116.582 39.0588 116.615 39.0598 116.545 38.7233C115.911 38.6705 116.631 38.9229 115.802 38.8689ZM123.091 39.1653C127.124 37.3861 130.784 33.6546 132.692 29.6803C133.108 28.8132 133.027 28.1813 131.956 28.225C130.617 29.1496 128.433 31.7522 127.432 33.056C126.767 33.9233 122.799 38.5137 122.572 39.357C122.848 39.2966 122.843 39.2996 123.091 39.1653Z" fill="#D9B46C"/>
<path d="M89.5973 30.1582C94.6764 25.7264 98.893 26.6311 95.24 33.7211C95.4341 33.5464 96.3352 32.7145 96.4966 32.607C97.2596 31.8135 99.3634 30.0562 100.253 29.3778C100.68 29.3758 101.192 29.3634 101.612 29.4048C99.7134 30.8414 98.5786 31.9559 96.8364 33.4885C96.5325 33.9655 94.9132 35.3631 94.4339 35.9172C91.6936 39.0843 88.8573 42.2377 86.2798 45.5348C84.6814 45.7032 82.7262 45.4675 80.9632 45.6328C81.6598 44.5418 83.5184 42.3686 84.3589 41.3545L91.3148 33.1105C91.9468 32.3662 94.8175 29.2796 94.6852 28.5034C93.8284 28.1789 91.7039 29.6335 90.9973 30.106C90.7077 29.9076 90.7191 29.8738 90.3796 29.8726C90.0632 30.0786 89.9707 30.1855 89.5973 30.1582Z" fill="#D9B46C"/>
<path d="M100.252 29.3778C100.68 29.3758 101.192 29.3634 101.612 29.4048C99.7134 30.8414 98.5786 31.9559 96.8364 33.4885C96.8643 33.1574 96.8454 33.1645 97.0014 32.8784C97.4177 32.6788 97.8998 32.3337 98.0098 31.8575L98.032 31.9325L97.9198 31.8637C97.4789 32.0147 97.1511 32.2882 96.8004 32.5884L96.6995 32.6759L96.4966 32.607C97.2595 31.8135 99.3634 30.0562 100.252 29.3778Z" fill="#E0AF5D"/>
<path d="M100.253 29.3777C101.476 28.42 104.217 26.4168 105.651 28.1346C106.179 28.7678 106.086 29.6794 106.09 30.4627C105.795 32.2602 105.297 33.0923 104.379 34.6831C105.331 33.8411 106.35 32.9076 107.325 32.1096C107.718 32.5714 107.698 32.4856 107.403 33.0829C106.924 33.639 106.242 34.3103 105.698 34.8229C102.154 38.166 99.1796 42.0726 95.8607 45.6056C94.1752 45.6487 92.4891 45.6606 90.8034 45.6416C91.4107 44.6767 93.5155 42.2392 94.3064 41.281L100.876 33.2587C101.626 32.3414 103.867 29.7501 104.17 28.7484C103.753 27.9666 102.133 29.1017 101.612 29.4047C101.192 29.3633 100.68 29.3757 100.253 29.3777Z" fill="#D9B46C"/>
<path d="M46.4832 18.7527C46.9509 18.2463 47.4693 17.7316 47.9532 17.2363C47.9705 17.7751 47.97 17.9407 48.1064 18.4564L48.0339 18.4605C47.0264 19.6762 45.6307 20.9733 44.525 22.1389C42.6107 23.9567 40.8091 26.2365 38.8636 28.161C31.48 35.4645 22.5584 43.0977 12.1986 45.3373C8.97455 45.8847 4.5205 46.2838 1.62275 44.4786C-0.316614 43.2703 -0.591591 40.3054 0.773454 38.5913C1.843 37.2484 3.96105 36.5605 5.38614 37.8469C5.87591 38.2828 6.16364 38.9039 6.18068 39.5619C6.20932 40.6627 5.61591 41.2721 4.91566 41.9749C3.46959 42.3828 2.6247 42.3402 1.14995 42.1111C2.70177 44.4956 4.5117 44.9849 7.24205 44.9869C18.9505 44.9956 28.79 36.3572 36.8518 28.7315C39.6057 26.1267 42.0393 23.2097 44.7382 20.6193C45.0143 20.2398 46.1073 19.147 46.4832 18.7527Z" fill="#D9B46C"/>
<path d="M46.4832 18.7527C46.9509 18.2463 47.4693 17.7316 47.9532 17.2363C47.9705 17.7751 47.97 17.9407 48.1064 18.4564L48.0339 18.4605L47.7598 18.3593C47.1491 18.7083 47.1632 18.7557 46.4832 18.7527Z" fill="#D9B46C"/>
<path d="M114.13 27.7439C114.767 27.6854 115.491 27.5851 116.013 28.0501C116.456 28.4454 116.61 29.1322 116.631 29.7032C116.82 34.8881 106.662 42.818 106.855 44.5255C107.38 44.6436 108.442 44.1824 108.918 43.9472C109.4 44.0101 109.783 43.9671 110.058 44.3996C108.947 44.9733 107.741 45.5979 106.452 45.4899C105.824 45.4375 105.178 45.2136 104.781 44.6948C101.73 40.6981 114.529 31.0834 114.608 28.8965C114.613 28.7477 114.373 28.568 114.271 28.4628C113.815 28.6436 112.981 28.9688 112.56 29.2098C112.011 29.2629 111.838 29.3597 111.441 28.9525C112.226 28.3763 112.832 28.1298 113.725 27.7959L114.13 27.7439Z" fill="#D9B46C"/>
<path d="M114.13 27.7439L114.273 27.9496C113.902 28.0128 113.64 27.9654 113.479 28.1833C113.951 28.2984 114.572 28.1098 114.804 28.2401C114.711 28.2764 114.325 28.4167 114.271 28.4627C113.815 28.6435 112.981 28.9687 112.56 29.2097C112.011 29.2628 111.838 29.3596 111.441 28.9525C112.226 28.3762 112.832 28.1297 113.725 27.7958L114.13 27.7439Z" fill="#D9B46C"/>
<path d="M152.271 29.174C153.325 28.2751 154.294 27.6453 155.738 27.7327C160.052 27.9945 158.284 34.0661 154.848 33.6949C153.406 33.5392 153.177 32.0649 153.25 30.8342C154.405 29.2777 154.7 29.432 156.268 28.5216C155.086 28.6619 154.39 28.7086 153.358 29.3757C152.859 29.3583 152.702 29.3912 152.271 29.174Z" fill="#D9B46C"/>
<path d="M129.652 40.2964C132.035 38.4095 134.185 36.0198 136.588 34.1667C136.453 34.4167 136.389 34.5373 136.224 34.7741L136.269 34.9833C136.853 34.9027 136.916 34.5071 137.54 34.5075C135.105 36.6494 132.635 38.7496 130.129 40.8074C128.043 42.5053 126.093 44.2401 123.53 45.2067C123.071 44.9433 122.99 44.9367 122.465 44.8046C125.315 43.4979 127.204 42.174 129.652 40.2964Z" fill="#D9B46C"/>
<path d="M115.802 38.869C116.631 38.923 115.911 38.6705 116.545 38.7234C116.615 39.0598 116.582 39.0589 116.471 39.3944C115.16 40.6082 111.559 43.7417 110.058 44.3997C109.783 43.9672 109.4 44.0102 108.918 43.9473C110.066 43.2815 111.191 42.621 112.241 41.8043C113.397 40.9055 114.617 39.6844 115.802 38.869Z" fill="#D9B46C"/>
<path d="M106.09 30.4628C106.136 30.6564 106.101 30.6946 106.232 30.8452L106.249 31.0155C106.329 30.6468 106.227 30.5456 106.411 30.3303C106.574 30.8825 106.468 30.8924 106.218 31.5009L106.3 31.6741L107.338 31.7824C107.268 31.5624 107.284 31.6261 107.272 31.3942L107.566 31.2125C107.695 30.531 108.715 30.2523 109.3 29.8058C110.511 28.8823 111.872 27.5586 113.439 27.4247C113.582 27.4124 113.66 27.6733 113.725 27.7959C112.832 28.1298 112.226 28.3763 111.441 28.9526C110.794 29.2867 108.781 30.799 108.195 31.3659C107.933 31.5846 107.561 31.876 107.325 32.1096C106.35 32.9077 105.331 33.8412 104.379 34.6831C105.297 33.0923 105.795 32.2602 106.09 30.4628Z" fill="#0B525A" fill-opacity="0.0196078"/>
<path d="M89.5973 30.1582C89.9707 30.1854 90.0632 30.0785 90.3795 29.8726C90.7191 29.8737 90.7077 29.9076 90.9973 30.106L89 31.7002L88.182 32.3607C87.0418 33.3571 85.7484 34.5405 84.578 35.4724C84.3193 35.1871 84.218 35.1053 83.9139 34.8644C84.782 34.1826 85.6839 33.239 86.5873 32.6149C87.1077 32.0616 87.7977 31.5663 88.4168 31.134C88.8632 30.7115 89.1127 30.5177 89.5973 30.1582Z" fill="#D9B46C"/>
<path d="M83.9139 34.8643C84.218 35.1052 84.3193 35.187 84.578 35.4723C83.3018 36.6754 80.51 39.4558 78.9159 39.8291C78.8155 39.3727 78.6387 39.4311 78.2264 39.294C79.7096 38.942 82.6098 36.0472 83.9139 34.8643Z" fill="#D9B46C"/>
<path d="M152.271 29.1741C152.702 29.3913 152.859 29.3583 153.358 29.3757C152.147 30.4193 150.989 31.7588 149.841 32.6884C149.76 32.5177 149.702 32.2785 149.647 32.0913L149.369 32.0126L152.271 29.1741Z" fill="#E0AF5D"/>
<path d="M111.441 28.9526C111.838 29.3598 112.011 29.263 112.56 29.2099C111.387 29.9047 109.832 30.9776 108.81 31.9099C108.568 31.5703 108.538 31.579 108.195 31.3659C108.781 30.799 110.794 29.2868 111.441 28.9526Z" fill="#D9B46C"/>
<path d="M120.571 45.3128C121.223 45.2107 121.834 44.9999 122.465 44.8047C122.99 44.9367 123.071 44.9434 123.53 45.2068C122.777 45.4977 122.279 45.6945 121.499 45.8847C120.987 45.8226 120.953 45.9011 120.597 45.6377L120.571 45.3128Z" fill="#E0AF5D"/>
<path d="M108.195 31.3657C108.538 31.5788 108.568 31.5701 108.81 31.9097C108.413 32.2468 107.804 32.7936 107.402 33.0828C107.698 32.4855 107.718 32.5713 107.325 32.1095C107.561 31.8758 107.933 31.5845 108.195 31.3657Z" fill="#E0AF5D"/>
<path d="M171.832 37.6585C172.191 37.3775 172.269 37.2734 172.697 37.1775L172.972 37.2388C173.244 37.8622 172.643 38.2485 172.206 38.6035C172.142 38.0787 172.166 38.0833 171.832 37.6585Z" fill="#C6B77D"/>
</g>
<defs>
<clipPath id="clip0_34_252">
<rect width="175" height="46" fill="white"/>
</clipPath>
</defs>
</svg>
